<svg width="1920" height="95" viewBox="0 0 1920 95" fill="none" xmlns="http://www.w3.org/2000/svg">
<g clip-path="url(#clip0_4005_2143)">
<mask id="path-1-inside-1_4005_2143" fill="white">
<path fill-rule="evenodd" clip-rule="evenodd" d="M1456.28 95C1473.72 95 1489.55 89.2633 1501.17 79.9416C1502.37 79.9316 1503.57 79.9204 1504.77 79.9078C1520.12 86.2355 1539.36 90 1560.24 90C1587.03 90 1611.1 83.809 1627.73 73.9607C1628.09 73.9289 1628.45 73.897 1628.81 73.8649C1637.05 77.1504 1646.36 79 1656.21 79C1672.29 79 1686.92 74.0755 1697.83 66.0239L1698.35 65.9508L1699.09 65.8465C1709.26 69.1481 1720.69 71 1732.76 71C1758.1 71 1780.59 62.8369 1794.64 50.2334C1802.48 53.9214 1811.34 56 1820.73 56C1830.88 56 1840.43 53.5667 1848.72 49.2946C1855.29 53.5624 1862.89 56 1871 56C1882.36 56 1892.74 51.2079 1900.67 43.2982C1902.89 43.5325 1905.12 43.7561 1907.36 43.9689C1925.71 53.8626 1951.27 60 1979.53 60C2009.67 60 2036.73 53.0216 2055.26 41.9517C2063.93 40.8732 2072.46 39.6302 2080.81 38.2304C2088.71 40.6627 2097.33 42 2106.35 42C2131.01 42 2152.66 31.9998 2164.89 16.9518C2237.43 -8.77441 2284 -48.6871 2284 -93.5C2284 -171.096 2144.36 -234 1972.1 -234C1900.74 -234 1834.97 -223.203 1782.41 -205.037C1699.08 -223.275 1597.17 -234 1487.13 -234C1350.9 -234 1227.14 -217.565 1135.65 -190.785C1076.83 -226.873 986.174 -250 884.473 -250C856.763 -250 829.873 -248.283 804.224 -245.055C747.987 -286.859 657.24 -314 554.867 -314C507.894 -314 463.369 -308.286 423.502 -298.063C361.086 -308.286 291.376 -314 217.834 -314C-49.3813 -314 -266.003 -238.56 -266.003 -145.5C-266.003 -76.0114 -145.22 -16.3471 27.2197 9.41964C38.8206 23.6466 58.4619 33 80.7393 33C97.0081 33 111.871 28.0118 123.223 19.78C129.02 20.1802 134.854 20.5443 140.723 20.8717C151.626 27.8491 165.297 32 180.138 32C193.401 32 205.73 28.6845 215.984 22.9988C216.601 22.9996 217.218 23 217.834 23C275.051 23 329.949 19.5412 380.896 13.1912C390.985 20.5784 403.811 25 417.772 25C431.354 25 443.861 20.8154 453.819 13.7867C485.483 19.7571 519.48 23 554.867 23C568.004 23 580.95 22.5531 593.656 21.6855C606.916 29.4032 623.587 34 641.694 34C654.853 34 667.254 31.5721 678.138 27.2829C691.094 32.604 704.923 37.4337 719.504 41.7132C731.222 55.2109 750.34 64 771.935 64C782.129 64 791.771 62.0415 800.343 58.5538C815.033 60.4995 830.142 61.948 845.588 62.86C859.087 69.2569 875.429 73 893.036 73C911.987 73 929.472 68.6639 943.524 61.3497C945.925 61.1314 948.316 60.9001 950.698 60.6558C958.583 65.3233 967.77 68 977.578 68C993.303 68 1007.43 61.1197 1017.16 50.1854C1028.6 53.9033 1041.55 56 1055.27 56C1083.68 56 1108.79 47.0138 1123.98 33.2599C1135.49 36.8485 1147.55 40.2674 1160.12 43.5033C1169.04 64.1937 1192.9 79 1220.93 79C1238.08 79 1253.67 73.4543 1265.23 64.4081C1273.04 65.5708 1280.96 66.674 1288.98 67.7159C1300.82 79.4997 1318.66 87 1338.61 87C1350.5 87 1361.64 84.3335 1371.21 79.6823C1377.54 83.0818 1384.7 85 1392.3 85C1399.34 85 1406 83.3541 1411.97 80.4096C1423.54 89.4549 1439.13 95 1456.28 95Z"/>
</mask>
<path fill-rule="evenodd" clip-rule="evenodd" d="M1456.28 95C1473.72 95 1489.55 89.2633 1501.17 79.9416C1502.37 79.9316 1503.57 79.9204 1504.77 79.9078C1520.12 86.2355 1539.36 90 1560.24 90C1587.03 90 1611.1 83.809 1627.73 73.9607C1628.09 73.9289 1628.45 73.897 1628.81 73.8649C1637.05 77.1504 1646.36 79 1656.21 79C1672.29 79 1686.92 74.0755 1697.83 66.0239L1698.35 65.9508L1699.09 65.8465C1709.26 69.1481 1720.69 71 1732.76 71C1758.1 71 1780.59 62.8369 1794.64 50.2334C1802.48 53.9214 1811.34 56 1820.73 56C1830.88 56 1840.43 53.5667 1848.72 49.2946C1855.29 53.5624 1862.89 56 1871 56C1882.36 56 1892.74 51.2079 1900.67 43.2982C1902.89 43.5325 1905.12 43.7561 1907.36 43.9689C1925.71 53.8626 1951.27 60 1979.53 60C2009.67 60 2036.73 53.0216 2055.26 41.9517C2063.93 40.8732 2072.46 39.6302 2080.81 38.2304C2088.71 40.6627 2097.33 42 2106.35 42C2131.01 42 2152.66 31.9998 2164.89 16.9518C2237.43 -8.77441 2284 -48.6871 2284 -93.5C2284 -171.096 2144.36 -234 1972.1 -234C1900.74 -234 1834.97 -223.203 1782.41 -205.037C1699.08 -223.275 1597.17 -234 1487.13 -234C1350.9 -234 1227.14 -217.565 1135.65 -190.785C1076.83 -226.873 986.174 -250 884.473 -250C856.763 -250 829.873 -248.283 804.224 -245.055C747.987 -286.859 657.24 -314 554.867 -314C507.894 -314 463.369 -308.286 423.502 -298.063C361.086 -308.286 291.376 -314 217.834 -314C-49.3813 -314 -266.003 -238.56 -266.003 -145.5C-266.003 -76.0114 -145.22 -16.3471 27.2197 9.41964C38.8206 23.6466 58.4619 33 80.7393 33C97.0081 33 111.871 28.0118 123.223 19.78C129.02 20.1802 134.854 20.5443 140.723 20.8717C151.626 27.8491 165.297 32 180.138 32C193.401 32 205.73 28.6845 215.984 22.9988C216.601 22.9996 217.218 23 217.834 23C275.051 23 329.949 19.5412 380.896 13.1912C390.985 20.5784 403.811 25 417.772 25C431.354 25 443.861 20.8154 453.819 13.7867C485.483 19.7571 519.48 23 554.867 23C568.004 23 580.95 22.5531 593.656 21.6855C606.916 29.4032 623.587 34 641.694 34C654.853 34 667.254 31.5721 678.138 27.2829C691.094 32.604 704.923 37.4337 719.504 41.7132C731.222 55.2109 750.34 64 771.935 64C782.129 64 791.771 62.0415 800.343 58.5538C815.033 60.4995 830.142 61.948 845.588 62.86C859.087 69.2569 875.429 73 893.036 73C911.987 73 929.472 68.6639 943.524 61.3497C945.925 61.1314 948.316 60.9001 950.698 60.6558C958.583 65.3233 967.77 68 977.578 68C993.303 68 1007.43 61.1197 1017.16 50.1854C1028.6 53.9033 1041.55 56 1055.27 56C1083.68 56 1108.79 47.0138 1123.98 33.2599C1135.49 36.8485 1147.55 40.2674 1160.12 43.5033C1169.04 64.1937 1192.9 79 1220.93 79C1238.08 79 1253.67 73.4543 1265.23 64.4081C1273.04 65.5708 1280.96 66.674 1288.98 67.7159C1300.82 79.4997 1318.66 87 1338.61 87C1350.5 87 1361.64 84.3335 1371.21 79.6823C1377.54 83.0818 1384.7 85 1392.3 85C1399.34 85 1406 83.3541 1411.97 80.4096C1423.54 89.4549 1439.13 95 1456.28 95Z" fill="#866D53"/>
<path d="M1501.17 79.9416L1501.14 75.9418L1499.75 75.9533L1498.67 76.8218L1501.17 79.9416ZM1504.77 79.9078L1506.3 76.2099L1505.55 75.8995L1504.73 75.908L1504.77 79.9078ZM1627.73 73.9607L1627.38 69.9761L1626.47 70.0559L1625.69 70.5193L1627.73 73.9607ZM1628.81 73.8649L1630.29 70.1493L1629.41 69.7963L1628.46 69.8806L1628.81 73.8649ZM1697.83 66.0239L1697.27 62.0626L1696.27 62.2031L1695.45 62.8053L1697.83 66.0239ZM1698.35 65.9508L1698.9 69.9122L1698.91 69.9119L1698.35 65.9508ZM1699.09 65.8465L1700.33 62.0418L1699.45 61.757L1698.54 61.8854L1699.09 65.8465ZM1794.64 50.2334L1796.35 46.6144L1793.95 45.4848L1791.97 47.2551L1794.64 50.2334ZM1848.72 49.2946L1850.89 45.9397L1848.95 44.6755L1846.88 45.7391L1848.72 49.2946ZM1900.67 43.2982L1901.09 39.3203L1899.2 39.1203L1897.85 40.4655L1900.67 43.2982ZM1907.36 43.9689L1909.26 40.4481L1908.55 40.0636L1907.74 39.9869L1907.36 43.9689ZM2055.26 41.9517L2054.76 37.9822L2053.93 38.0861L2053.2 38.5181L2055.26 41.9517ZM2080.81 38.2304L2081.99 34.4075L2081.09 34.129L2080.15 34.2854L2080.81 38.2304ZM2164.89 16.9518L2163.56 13.182L2162.5 13.5574L2161.79 14.4288L2164.89 16.9518ZM1782.41 -205.037L1781.56 -201.13L1782.66 -200.889L1783.72 -201.256L1782.41 -205.037ZM1135.65 -190.785L1133.56 -187.376L1135.07 -186.448L1136.77 -186.947L1135.65 -190.785ZM804.224 -245.055L801.838 -241.845L803.128 -240.886L804.723 -241.086L804.224 -245.055ZM423.502 -298.063L422.855 -294.116L423.683 -293.98L424.496 -294.188L423.502 -298.063ZM27.2197 9.41964L30.3198 6.89184L29.3416 5.6923L27.8109 5.46356L27.2197 9.41964ZM123.223 19.78L123.499 15.7895L122.051 15.6895L120.875 16.5418L123.223 19.78ZM140.723 20.8717L142.879 17.5026L141.995 16.9364L140.946 16.8779L140.723 20.8717ZM215.984 22.9988L215.99 18.9988L214.952 18.9974L214.045 19.5006L215.984 22.9988ZM380.896 13.1912L383.26 9.96388L381.978 9.02545L380.402 9.22191L380.896 13.1912ZM453.819 13.7867L454.561 9.85597L452.896 9.54216L451.513 10.5187L453.819 13.7867ZM593.656 21.6855L595.668 18.2284L594.607 17.6112L593.383 17.6948L593.656 21.6855ZM678.138 27.2829L679.658 23.5828L678.169 22.9714L676.672 23.5615L678.138 27.2829ZM719.504 41.7132L722.524 39.0909L721.755 38.2054L720.63 37.8751L719.504 41.7132ZM800.343 58.5538L800.868 54.5884L799.817 54.4492L798.835 54.8487L800.343 58.5538ZM845.588 62.86L847.301 59.2453L846.599 58.9128L845.824 58.867L845.588 62.86ZM943.524 61.3497L943.162 57.3661L942.377 57.4375L941.677 57.8016L943.524 61.3497ZM950.698 60.6558L952.735 57.2136L951.601 56.5422L950.289 56.6767L950.698 60.6558ZM1017.16 50.1854L1018.4 46.3813L1015.91 45.5728L1014.17 47.5267L1017.16 50.1854ZM1123.98 33.2599L1125.17 29.4414L1122.99 28.7609L1121.3 30.2943L1123.98 33.2599ZM1160.12 43.5033L1163.8 41.9199L1163.02 40.1184L1161.12 39.6295L1160.12 43.5033ZM1265.23 64.4081L1265.82 60.4517L1264.12 60.1985L1262.77 61.2579L1265.23 64.4081ZM1288.98 67.7159L1291.8 64.8807L1290.84 63.9239L1289.5 63.7492L1288.98 67.7159ZM1371.21 79.6823L1373.11 76.1591L1371.31 75.1902L1369.46 76.0848L1371.21 79.6823ZM1411.97 80.4096L1414.44 77.2593L1412.46 75.7103L1410.21 76.8221L1411.97 80.4096ZM1498.67 76.8218C1487.8 85.5452 1472.86 91 1456.28 91V99C1474.59 99 1491.31 92.9814 1503.68 83.0615L1498.67 76.8218ZM1504.73 75.908C1503.54 75.9206 1502.34 75.9318 1501.14 75.9418L1501.21 83.9415C1502.41 83.9315 1503.61 83.9202 1504.82 83.9076L1504.73 75.908ZM1560.24 86C1539.81 86 1521.1 82.3137 1506.3 76.2099L1503.25 83.6057C1519.14 90.1573 1538.9 94 1560.24 94V86ZM1625.69 70.5193C1609.81 79.924 1586.48 86 1560.24 86V94C1587.58 94 1612.39 87.6941 1629.77 77.4021L1625.69 70.5193ZM1628.46 69.8806C1628.1 69.9125 1627.74 69.9444 1627.38 69.9761L1628.08 77.9453C1628.44 77.9134 1628.8 77.8814 1629.17 77.8492L1628.46 69.8806ZM1656.21 75C1646.86 75 1638.06 73.2436 1630.29 70.1493L1627.33 77.5806C1636.05 81.0572 1645.86 83 1656.21 83V75ZM1695.45 62.8053C1685.27 70.3175 1671.49 75 1656.21 75V83C1673.09 83 1688.56 77.8335 1700.2 69.2426L1695.45 62.8053ZM1697.79 61.9895L1697.27 62.0626L1698.38 69.9853L1698.9 69.9122L1697.79 61.9895ZM1698.54 61.8854L1697.79 61.9897L1698.91 69.9119L1699.65 69.8076L1698.54 61.8854ZM1732.76 67C1721.09 67 1710.09 65.2094 1700.33 62.0418L1697.86 69.6511C1708.44 73.0867 1720.28 75 1732.76 75V67ZM1791.97 47.2551C1778.79 59.073 1757.32 67 1732.76 67V75C1758.88 75 1782.38 66.6008 1797.31 53.2116L1791.97 47.2551ZM1820.73 52C1811.93 52 1803.65 50.0534 1796.35 46.6144L1792.94 53.8524C1801.3 57.7893 1810.75 60 1820.73 60V52ZM1846.88 45.7391C1839.16 49.7214 1830.24 52 1820.73 52V60C1831.53 60 1841.7 57.4121 1850.55 52.8502L1846.88 45.7391ZM1871 52C1863.72 52 1856.86 49.814 1850.89 45.9397L1846.54 52.6496C1853.72 57.3108 1862.07 60 1871 60V52ZM1897.85 40.4655C1890.58 47.7103 1881.19 52 1871 52V60C1883.53 60 1894.9 54.7056 1903.5 46.1309L1897.85 40.4655ZM1907.74 39.9869C1905.52 39.7754 1903.3 39.5531 1901.09 39.3203L1900.25 47.2761C1902.49 47.5118 1904.73 47.7368 1906.98 47.9509L1907.74 39.9869ZM1979.53 56C1951.79 56 1926.91 49.9671 1909.26 40.4481L1905.46 47.4897C1924.5 57.7581 1950.74 64 1979.53 64V56ZM2053.2 38.5181C2035.44 49.1356 2009.13 56 1979.53 56V64C2010.22 64 2038.03 56.9076 2057.31 45.3853L2053.2 38.5181ZM2080.15 34.2854C2071.85 35.6757 2063.38 36.9106 2054.76 37.9822L2055.75 45.9211C2064.48 44.8358 2073.06 43.5847 2081.47 42.1754L2080.15 34.2854ZM2106.35 38C2097.72 38 2089.5 36.721 2081.99 34.4075L2079.64 42.0533C2087.92 44.6045 2096.94 46 2106.35 46V38ZM2161.79 14.4288C2150.43 28.4002 2130.01 38 2106.35 38V46C2132.02 46 2154.89 35.5995 2168 19.4749L2161.79 14.4288ZM2280 -93.5C2280 -72.5862 2269.15 -52.4015 2248.96 -34.0786C2228.76 -15.7514 2199.51 0.42994 2163.56 13.182L2166.23 20.7217C2202.81 7.7475 2233.11 -8.8906 2254.34 -28.1546C2275.57 -47.4228 2288 -69.601 2288 -93.5H2280ZM1972.1 -230C2057.8 -230 2135.19 -214.345 2191.01 -189.201C2247.19 -163.89 2280 -129.746 2280 -93.5H2288C2288 -134.85 2250.99 -170.956 2194.29 -196.496C2137.22 -222.203 2058.66 -238 1972.1 -238V-230ZM1783.72 -201.256C1835.8 -219.257 1901.12 -230 1972.1 -230V-238C1900.36 -238 1834.15 -227.149 1781.11 -208.818L1783.72 -201.256ZM1487.13 -230C1596.93 -230 1698.55 -219.297 1781.56 -201.13L1783.27 -208.945C1699.61 -227.253 1597.41 -238 1487.13 -238V-230ZM1136.77 -186.947C1227.82 -213.594 1351.18 -230 1487.13 -230V-238C1350.62 -238 1226.47 -221.535 1134.53 -194.624L1136.77 -186.947ZM884.473 -246C985.666 -246 1075.54 -222.972 1133.56 -187.376L1137.74 -194.195C1078.12 -230.773 986.683 -254 884.473 -254V-246ZM804.723 -241.086C830.204 -244.293 856.927 -246 884.473 -246V-254C856.599 -254 829.542 -252.273 803.725 -249.024L804.723 -241.086ZM554.867 -310C656.646 -310 746.476 -282.998 801.838 -241.845L806.61 -248.265C749.497 -290.721 657.834 -318 554.867 -318V-310ZM424.496 -294.188C464.022 -304.324 508.213 -310 554.867 -310V-318C507.575 -318 462.716 -312.248 422.508 -301.938L424.496 -294.188ZM217.834 -310C291.174 -310 360.667 -304.301 422.855 -294.116L424.148 -302.011C361.504 -312.271 291.578 -318 217.834 -318V-310ZM-262.003 -145.5C-262.003 -167.089 -249.448 -188.23 -225.438 -208C-201.455 -227.747 -166.51 -245.709 -122.975 -260.87C-35.9422 -291.18 84.5519 -310 217.834 -310V-318C83.9012 -318 -37.5234 -299.1 -125.606 -268.425C-169.628 -253.094 -205.539 -234.747 -230.523 -214.176C-255.48 -193.627 -270.003 -170.441 -270.003 -145.5H-262.003ZM27.8109 5.46356C-58.1566 -7.38208 -130.993 -28.6463 -182.216 -55.1958C-233.782 -81.9232 -262.003 -113.203 -262.003 -145.5H-270.003C-270.003 -108.308 -237.832 -75.0117 -185.897 -48.0932C-133.619 -20.9967 -59.8441 0.454594 26.6286 13.3757L27.8109 5.46356ZM80.7393 29C59.5411 29 41.0865 20.096 30.3198 6.89184L24.1197 11.9474C36.5546 27.1973 57.3828 37 80.7393 37V29ZM120.875 16.5418C110.234 24.258 96.2 29 80.7393 29V37C97.8161 37 113.508 31.7655 125.572 23.0183L120.875 16.5418ZM140.946 16.8779C135.094 16.5515 129.278 16.1885 123.499 15.7895L122.948 23.7705C128.762 24.1719 134.614 24.5372 140.501 24.8655L140.946 16.8779ZM180.138 28C166.037 28 153.118 24.055 142.879 17.5026L138.567 24.2409C150.134 31.6432 164.557 36 180.138 36V28ZM214.045 19.5006C204.398 24.8496 192.738 28 180.138 28V36C194.064 36 207.063 32.5193 217.924 26.497L214.045 19.5006ZM217.834 19C217.219 19 216.604 18.9996 215.99 18.9988L215.979 26.9988C216.597 26.9996 217.216 27 217.834 27V19ZM380.402 9.22191C329.624 15.5507 274.892 19 217.834 19V27C275.21 27 330.273 23.5317 381.391 17.1605L380.402 9.22191ZM417.772 21C404.658 21 392.661 16.8478 383.26 9.96388L378.533 16.4185C389.309 24.309 402.963 29 417.772 29V21ZM451.513 10.5187C442.231 17.0704 430.529 21 417.772 21V29C432.179 29 445.492 24.5604 456.126 17.0546L451.513 10.5187ZM554.867 19C519.722 19 485.973 15.7791 454.561 9.85597L453.078 17.7174C484.992 23.7351 519.238 27 554.867 27V19ZM593.383 17.6948C580.768 18.5561 567.914 19 554.867 19V27C568.095 27 581.131 26.55 593.928 25.6762L593.383 17.6948ZM641.694 30C624.249 30 608.28 25.5688 595.668 18.2284L591.644 25.1426C605.552 33.2375 622.924 38 641.694 38V30ZM676.672 23.5615C666.267 27.6614 654.365 30 641.694 30V38C655.341 38 668.24 35.4828 679.605 31.0044L676.672 23.5615ZM720.63 37.8751C706.173 33.6319 692.476 28.8474 679.658 23.5828L676.618 30.983C689.712 36.3606 703.673 41.2355 718.377 45.5513L720.63 37.8751ZM771.935 60C751.39 60 733.414 51.6346 722.524 39.0909L716.483 44.3355C729.029 58.7872 749.29 68 771.935 68V60ZM798.835 54.8487C790.747 58.1396 781.617 60 771.935 60V68C782.64 68 792.794 65.9434 801.85 62.2589L798.835 54.8487ZM845.824 58.867C830.473 57.9605 815.461 56.5212 800.868 54.5884L799.817 62.5192C814.605 64.4778 829.81 65.9354 845.352 66.8531L845.824 58.867ZM893.036 69C875.982 69 860.231 65.3725 847.301 59.2453L843.875 66.4747C857.943 73.1414 874.875 77 893.036 77V69ZM941.677 57.8016C928.238 64.7966 911.394 69 893.036 69V77C912.58 77 930.705 72.5312 945.371 64.8979L941.677 57.8016ZM950.289 56.6767C947.923 56.9194 945.547 57.1492 943.162 57.3661L943.886 65.3333C946.302 65.1136 948.709 64.8808 951.106 64.635L950.289 56.6767ZM977.578 64C968.508 64 960.022 61.5267 952.735 57.2136L948.66 64.098C957.144 69.12 967.033 72 977.578 72V64ZM1014.17 47.5267C1005.17 57.6479 992.108 64 977.578 64V72C994.498 72 1009.7 64.5915 1020.15 52.844L1014.17 47.5267ZM1055.27 52C1041.95 52 1029.42 49.9638 1018.4 46.3813L1015.92 53.9894C1027.78 57.8429 1041.15 60 1055.27 60V52ZM1121.3 30.2943C1107.01 43.2311 1082.94 52 1055.27 52V60C1084.42 60 1110.57 50.7965 1126.67 36.2256L1121.3 30.2943ZM1161.12 39.6295C1148.61 36.4091 1136.61 33.0085 1125.17 29.4414L1122.79 37.0784C1134.36 40.6885 1146.49 44.1256 1159.13 47.3771L1161.12 39.6295ZM1220.93 75C1194.19 75 1171.97 60.8848 1163.8 41.9199L1156.45 45.0867C1166.11 67.5027 1191.6 83 1220.93 83V75ZM1262.77 61.2579C1251.94 69.7272 1237.23 75 1220.93 75V83C1238.93 83 1255.4 77.1814 1267.7 67.5582L1262.77 61.2579ZM1289.5 63.7492C1281.5 62.7105 1273.6 61.6107 1265.82 60.4517L1264.64 68.3644C1272.48 69.5309 1280.42 70.6376 1288.47 71.6826L1289.5 63.7492ZM1338.61 83C1319.64 83 1302.84 75.8643 1291.8 64.8807L1286.16 70.5511C1298.8 83.1352 1317.68 91 1338.61 91V83ZM1369.46 76.0848C1360.45 80.4667 1349.91 83 1338.61 83V91C1351.1 91 1362.84 88.2003 1372.96 83.2798L1369.46 76.0848ZM1392.3 81C1385.39 81 1378.87 79.2563 1373.11 76.1591L1369.32 83.2055C1376.21 86.9072 1384.02 89 1392.3 89V81ZM1410.21 76.8221C1404.77 79.5035 1398.7 81 1392.3 81V89C1399.97 89 1407.24 87.2047 1413.74 83.9971L1410.21 76.8221ZM1456.28 91C1439.98 91 1425.26 85.7277 1414.44 77.2593L1409.51 83.5599C1421.81 93.1821 1438.28 99 1456.28 99V91Z" fill="black" mask="url(#path-1-inside-1_4005_2143)"/>
</g>
<defs>
<clipPath id="clip0_4005_2143">
<rect width="2550" height="95" fill="white" transform="translate(-266)"/>
</clipPath>
</defs>
</svg>
