<svg width="1920" height="101" viewBox="0 0 1920 101" fill="none" xmlns="http://www.w3.org/2000/svg">
<g clip-path="url(#clip0_4005_2142)">
<mask id="path-1-inside-1_4005_2142" fill="white">
<path fill-rule="evenodd" clip-rule="evenodd" d="M617.5 0C602.229 0 588.373 5.73671 578.205 15.0584C577.153 15.0684 576.102 15.0797 575.052 15.0922C561.622 8.76452 544.782 5 526.5 5C503.055 5 481.981 11.1911 467.43 21.0396C467.115 21.0713 466.8 21.1031 466.485 21.1351C459.271 17.8496 451.124 16 442.5 16C428.429 16 415.627 20.9245 406.076 28.9761C405.872 29.0086 405.669 29.0412 405.466 29.0737L404.968 29.1537C396.064 25.852 386.065 24 375.5 24C353.318 24 333.636 32.1633 321.331 44.767C314.475 41.0788 306.716 39 298.5 39C289.611 39 281.258 41.4331 274.003 45.705C268.249 41.4375 261.593 39 254.5 39C244.555 39 235.468 43.7921 228.524 51.7019C226.581 51.4676 224.63 51.244 222.671 51.0312C206.611 41.1374 184.241 35 159.5 35C133.118 35 109.432 41.9784 93.2185 53.0482C85.6246 54.1266 78.1633 55.3695 70.8502 56.7692C63.9358 54.3371 56.3945 53 48.5 53C26.9113 53 7.96366 62.9993 -2.74332 78.0463C-66.2327 103.772 -107 143.686 -107 188.5C-107 266.096 15.2263 329 166 329C228.466 329 286.032 318.203 332.036 300.037C404.979 318.275 494.178 329 590.5 329C709.74 329 818.062 312.565 898.146 285.786C949.631 321.873 1028.98 345 1118 345C1142.25 345 1165.79 343.283 1188.24 340.055C1237.46 381.86 1316.89 409 1406.5 409C1447.61 409 1486.59 403.286 1521.48 393.063C1576.11 403.286 1637.13 409 1701.5 409C1935.39 409 2125 333.56 2125 240.5C2125 171.012 2019.28 111.348 1868.35 85.5806C1858.19 71.3535 1841 62 1821.5 62C1807.26 62 1794.25 66.9883 1784.31 75.2201C1779.24 74.82 1774.14 74.4559 1769 74.1286C1759.46 67.151 1747.49 63 1734.5 63C1722.89 63 1712.1 66.3156 1703.12 72.0012C1702.58 72.0004 1702.04 72 1701.5 72C1651.42 72 1603.37 75.4586 1558.78 81.8083C1549.95 74.4214 1538.72 70 1526.5 70C1514.61 70 1503.66 74.1847 1494.95 81.2136C1467.23 75.243 1437.47 72 1406.5 72C1395 72 1383.67 72.447 1372.55 73.3145C1360.94 65.5968 1346.35 61 1330.5 61C1318.98 61 1308.13 63.4276 1298.6 67.7163C1287.26 62.3948 1275.16 57.5647 1262.39 53.2849C1252.13 39.7883 1235.4 31 1216.5 31C1207.58 31 1199.14 32.9583 1191.64 36.4457C1178.78 34.5 1165.55 33.0516 1152.03 32.1396C1140.21 25.7429 1125.91 22 1110.5 22C1093.91 22 1078.61 26.3363 1066.31 33.6509C1064.21 33.8692 1062.11 34.1005 1060.03 34.3447C1053.13 29.6769 1045.09 27 1036.5 27C1022.74 27 1010.37 33.8799 1001.86 44.8137C991.845 41.0963 980.509 39 968.5 39C943.637 39 921.657 47.9859 908.356 61.7394C898.286 58.1505 887.729 54.7314 876.721 51.4953C868.914 30.8056 848.033 16 823.5 16C808.486 16 794.839 21.5455 784.721 30.5913C777.888 29.4288 770.958 28.3258 763.936 27.2841C753.572 15.5003 737.961 8 720.5 8C710.088 8 700.334 10.6668 691.958 15.3184C686.423 11.9185 680.148 10 673.5 10C667.342 10 661.505 11.6459 656.279 14.5905C646.16 5.54513 632.514 0 617.5 0Z"/>
</mask>
<path fill-rule="evenodd" clip-rule="evenodd" d="M617.5 0C602.229 0 588.373 5.73671 578.205 15.0584C577.153 15.0684 576.102 15.0797 575.052 15.0922C561.622 8.76452 544.782 5 526.5 5C503.055 5 481.981 11.1911 467.43 21.0396C467.115 21.0713 466.8 21.1031 466.485 21.1351C459.271 17.8496 451.124 16 442.5 16C428.429 16 415.627 20.9245 406.076 28.9761C405.872 29.0086 405.669 29.0412 405.466 29.0737L404.968 29.1537C396.064 25.852 386.065 24 375.5 24C353.318 24 333.636 32.1633 321.331 44.767C314.475 41.0788 306.716 39 298.5 39C289.611 39 281.258 41.4331 274.003 45.705C268.249 41.4375 261.593 39 254.5 39C244.555 39 235.468 43.7921 228.524 51.7019C226.581 51.4676 224.63 51.244 222.671 51.0312C206.611 41.1374 184.241 35 159.5 35C133.118 35 109.432 41.9784 93.2185 53.0482C85.6246 54.1266 78.1633 55.3695 70.8502 56.7692C63.9358 54.3371 56.3945 53 48.5 53C26.9113 53 7.96366 62.9993 -2.74332 78.0463C-66.2327 103.772 -107 143.686 -107 188.5C-107 266.096 15.2263 329 166 329C228.466 329 286.032 318.203 332.036 300.037C404.979 318.275 494.178 329 590.5 329C709.74 329 818.062 312.565 898.146 285.786C949.631 321.873 1028.98 345 1118 345C1142.25 345 1165.79 343.283 1188.24 340.055C1237.46 381.86 1316.89 409 1406.5 409C1447.61 409 1486.59 403.286 1521.48 393.063C1576.11 403.286 1637.13 409 1701.5 409C1935.39 409 2125 333.56 2125 240.5C2125 171.012 2019.28 111.348 1868.35 85.5806C1858.19 71.3535 1841 62 1821.5 62C1807.26 62 1794.25 66.9883 1784.31 75.2201C1779.24 74.82 1774.14 74.4559 1769 74.1286C1759.46 67.151 1747.49 63 1734.5 63C1722.89 63 1712.1 66.3156 1703.12 72.0012C1702.58 72.0004 1702.04 72 1701.5 72C1651.42 72 1603.37 75.4586 1558.78 81.8083C1549.95 74.4214 1538.72 70 1526.5 70C1514.61 70 1503.66 74.1847 1494.95 81.2136C1467.23 75.243 1437.47 72 1406.5 72C1395 72 1383.67 72.447 1372.55 73.3145C1360.94 65.5968 1346.35 61 1330.5 61C1318.98 61 1308.13 63.4276 1298.6 67.7163C1287.26 62.3948 1275.16 57.5647 1262.39 53.2849C1252.13 39.7883 1235.4 31 1216.5 31C1207.58 31 1199.14 32.9583 1191.64 36.4457C1178.78 34.5 1165.55 33.0516 1152.03 32.1396C1140.21 25.7429 1125.91 22 1110.5 22C1093.91 22 1078.61 26.3363 1066.31 33.6509C1064.21 33.8692 1062.11 34.1005 1060.03 34.3447C1053.13 29.6769 1045.09 27 1036.5 27C1022.74 27 1010.37 33.8799 1001.86 44.8137C991.845 41.0963 980.509 39 968.5 39C943.637 39 921.657 47.9859 908.356 61.7394C898.286 58.1505 887.729 54.7314 876.721 51.4953C868.914 30.8056 848.033 16 823.5 16C808.486 16 794.839 21.5455 784.721 30.5913C777.888 29.4288 770.958 28.3258 763.936 27.2841C753.572 15.5003 737.961 8 720.5 8C710.088 8 700.334 10.6668 691.958 15.3184C686.423 11.9185 680.148 10 673.5 10C667.342 10 661.505 11.6459 656.279 14.5905C646.16 5.54513 632.514 0 617.5 0Z" fill="#866D53"/>
<path d="M578.205 15.0584L578.243 19.0582L579.777 19.0436L580.908 18.0069L578.205 15.0584ZM575.052 15.0922L573.347 18.7107L574.179 19.1029L575.099 19.0919L575.052 15.0922ZM467.43 21.0396L467.831 25.0195L468.836 24.9184L469.672 24.3522L467.43 21.0396ZM466.485 21.1351L464.827 24.7754L465.812 25.2239L466.888 25.1147L466.485 21.1351ZM406.076 28.9761L406.707 32.9261L407.804 32.7508L408.654 32.0344L406.076 28.9761ZM405.466 29.0737L404.832 25.1242L404.831 25.1243L405.466 29.0737ZM404.968 29.1537L403.577 32.9042L404.563 33.2699L405.602 33.1031L404.968 29.1537ZM321.331 44.767L319.436 48.2897L322.089 49.7167L324.194 47.5612L321.331 44.767ZM274.003 45.705L271.62 48.9178L273.749 50.4966L276.033 49.1519L274.003 45.705ZM228.524 51.7019L228.045 55.6732L230.138 55.9256L231.53 54.3409L228.524 51.7019ZM222.671 51.0312L220.573 54.4368L221.342 54.9103L222.239 55.0078L222.671 51.0312ZM93.2185 53.0482L93.7808 57.0085L94.7039 56.8774L95.4739 56.3517L93.2185 53.0482ZM70.8502 56.7692L69.5229 60.5426L70.5416 60.9009L71.6021 60.6979L70.8502 56.7692ZM-2.74332 78.0463L-1.24114 81.7535L-0.160324 81.3156L0.515793 80.3654L-2.74332 78.0463ZM332.036 300.037L333.006 296.156L331.761 295.845L330.567 296.316L332.036 300.037ZM898.146 285.786L900.442 282.51L898.79 281.352L896.877 281.992L898.146 285.786ZM1188.24 340.055L1190.83 337.006L1189.45 335.839L1187.67 336.096L1188.24 340.055ZM1521.48 393.063L1522.22 389.132L1521.28 388.956L1520.36 389.225L1521.48 393.063ZM1868.35 85.5806L1865.09 87.9043L1866.05 89.2462L1867.67 89.5236L1868.35 85.5806ZM1784.31 75.2201L1784 79.2077L1785.62 79.3352L1786.87 78.3004L1784.31 75.2201ZM1769 74.1286L1766.64 77.3576L1767.58 78.0463L1768.75 78.1205L1769 74.1286ZM1703.12 72.0012L1703.12 76.0012L1704.28 76.0029L1705.26 75.3803L1703.12 72.0012ZM1558.78 81.8083L1556.21 84.8764L1557.58 86.0195L1559.34 85.7684L1558.78 81.8083ZM1494.95 81.2136L1494.11 85.1239L1495.97 85.526L1497.46 84.3273L1494.95 81.2136ZM1372.55 73.3145L1370.33 76.6454L1371.48 77.4098L1372.86 77.3024L1372.55 73.3145ZM1298.6 67.7163L1296.9 71.3376L1298.57 72.1186L1300.24 71.3638L1298.6 67.7163ZM1262.39 53.2849L1259.21 55.7051L1259.95 56.6858L1261.12 57.0774L1262.39 53.2849ZM1191.64 36.4457L1191.04 40.4007L1192.23 40.581L1193.32 40.073L1191.64 36.4457ZM1152.03 32.1396L1150.13 35.6572L1150.89 36.0719L1151.76 36.1305L1152.03 32.1396ZM1066.31 33.6509L1066.72 37.6295L1067.6 37.5386L1068.35 37.0889L1066.31 33.6509ZM1060.03 34.3447L1057.79 37.6581L1059.02 38.4905L1060.49 38.3175L1060.03 34.3447ZM1001.86 44.8137L1000.46 48.5635L1003.21 49.5838L1005.01 47.2712L1001.86 44.8137ZM908.356 61.7394L907.014 65.5072L909.441 66.3722L911.232 64.5201L908.356 61.7394ZM876.721 51.4953L872.978 52.9074L873.682 54.7711L875.593 55.3329L876.721 51.4953ZM784.721 30.5913L784.05 34.5346L785.95 34.8579L787.387 33.5734L784.721 30.5913ZM763.936 27.2841L760.933 29.9258L761.9 31.0258L763.349 31.2408L763.936 27.2841ZM691.958 15.3184L689.865 18.7268L691.856 19.9502L693.9 18.8153L691.958 15.3184ZM656.279 14.5905L653.613 17.5727L655.747 19.481L658.242 18.0754L656.279 14.5905ZM580.908 18.0069C590.347 9.35399 603.241 4 617.5 4V-4C601.217 -4 586.4 2.11943 575.502 12.1098L580.908 18.0069ZM575.099 19.0919C576.146 19.0794 577.194 19.0682 578.243 19.0582L578.167 11.0586C577.112 11.0686 576.057 11.0799 575.004 11.0925L575.099 19.0919ZM526.5 9C544.256 9 560.505 12.66 573.347 18.7107L576.757 11.4737C562.739 4.86905 545.307 1 526.5 1V9ZM469.672 24.3522C483.442 15.0321 503.698 9 526.5 9V1C502.413 1 480.52 7.35005 465.188 17.727L469.672 24.3522ZM466.888 25.1147C467.202 25.0828 467.516 25.0511 467.831 25.0195L467.03 17.0597C466.713 17.0915 466.397 17.1235 466.081 17.1555L466.888 25.1147ZM442.5 20C450.549 20 458.131 21.7261 464.827 24.7754L468.143 17.4949C460.41 13.9731 451.698 12 442.5 12V20ZM408.654 32.0344C417.477 24.5962 429.364 20 442.5 20V12C427.494 12 413.776 17.2528 403.498 25.9179L408.654 32.0344ZM406.099 33.0233C406.301 32.9908 406.504 32.9584 406.707 32.9261L405.445 25.0262C405.241 25.0588 405.036 25.0915 404.832 25.1242L406.099 33.0233ZM405.602 33.1031L406.1 33.0232L404.831 25.1243L404.334 25.2043L405.602 33.1031ZM375.5 28C385.601 28 395.127 29.771 403.577 32.9042L406.359 25.4032C397 21.933 386.53 20 375.5 20V28ZM324.194 47.5612C335.646 35.8303 354.245 28 375.5 28V20C352.392 20 331.625 28.4962 318.469 41.9728L324.194 47.5612ZM298.5 43C306.031 43 313.141 44.9035 319.436 48.2897L323.226 41.2443C315.808 37.2542 307.401 35 298.5 35V43ZM276.033 49.1519C282.698 45.2273 290.353 43 298.5 43V35C288.868 35 279.818 37.639 271.973 42.2581L276.033 49.1519ZM254.5 43C260.641 43 266.476 45.1026 271.62 48.9178L276.386 42.4922C270.022 37.7723 262.545 35 254.5 35V43ZM231.53 54.3409C237.866 47.1238 245.917 43 254.5 43V35C243.192 35 233.07 40.4605 225.518 49.0629L231.53 54.3409ZM222.239 55.0078C224.182 55.2189 226.117 55.4407 228.045 55.6732L229.003 47.7307C227.044 47.4945 225.077 47.2691 223.103 47.0546L222.239 55.0078ZM159.5 39C183.63 39 205.246 44.9945 220.573 54.4368L224.769 47.6256C207.977 37.2804 184.853 31 159.5 31V39ZM95.4739 56.3517C110.899 45.8203 133.758 39 159.5 39V31C132.478 31 107.966 38.1364 90.9631 49.7447L95.4739 56.3517ZM71.6021 60.6979C78.8514 59.3105 86.2494 58.078 93.7808 57.0085L92.6561 49.0879C84.9997 50.1752 77.4753 51.4286 70.0983 52.8405L71.6021 60.6979ZM48.5 57C55.942 57 63.0346 58.2603 69.5229 60.5426L72.1775 52.9958C64.8371 50.4139 56.847 49 48.5 49V57ZM0.515793 80.3654C10.4274 66.4362 28.1261 57 48.5 57V49C25.6965 49 5.49995 59.5624 -6.00244 75.7272L0.515793 80.3654ZM-103 188.5C-103 146.286 -64.3891 107.341 -1.24114 81.7535L-4.24551 74.3391C-68.0763 100.204 -111 141.086 -111 188.5H-103ZM166 325C91.1158 325 23.5191 309.37 -25.2097 284.292C-74.1462 259.107 -103 225.027 -103 188.5H-111C-111 229.569 -78.7407 265.739 -28.8706 291.405C21.2071 317.178 90.1105 333 166 333V325ZM330.567 296.316C285.09 314.274 228.031 325 166 325V333C228.901 333 286.974 322.131 333.505 303.757L330.567 296.316ZM590.5 325C494.456 325 405.588 314.304 333.006 296.156L331.066 303.917C404.371 322.246 493.9 333 590.5 333V325ZM896.877 281.992C817.294 308.604 709.417 325 590.5 325V333C710.063 333 818.831 316.526 899.414 289.579L896.877 281.992ZM1118 341C1029.58 341 951.094 318.014 900.442 282.51L895.85 289.061C948.167 325.732 1028.38 349 1118 349V341ZM1187.67 336.096C1165.41 339.296 1142.07 341 1118 341V349C1142.44 349 1166.17 347.27 1188.81 344.015L1187.67 336.096ZM1406.5 405C1317.6 405 1239.17 378.058 1190.83 337.006L1185.65 343.104C1235.76 385.661 1316.18 413 1406.5 413V405ZM1520.36 389.225C1485.84 399.336 1447.25 405 1406.5 405V413C1447.98 413 1487.33 407.236 1522.61 396.902L1520.36 389.225ZM1701.5 405C1637.36 405 1576.59 399.306 1522.22 389.132L1520.75 396.995C1575.64 407.266 1636.9 413 1701.5 413V405ZM2121 240.5C2121 262.303 2109.91 283.484 2088.98 303.174C2068.04 322.872 2037.52 340.795 1999.48 355.931C1923.42 386.193 1818.07 405 1701.5 405V413C1818.82 413 1925.22 394.087 2002.44 363.364C2041.04 348.007 2072.54 329.622 2094.46 309.001C2116.39 288.374 2129 265.227 2129 240.5H2121ZM1867.67 89.5236C1942.85 102.357 2006.5 123.594 2051.24 150.087C2096.16 176.692 2121 207.935 2121 240.5H2129C2129 203.577 2100.98 170.243 2055.31 143.203C2009.46 116.049 1944.78 94.5713 1869.02 81.6377L1867.67 89.5236ZM1821.5 66C1839.71 66 1855.69 74.7313 1865.09 87.9043L1871.6 83.2569C1860.7 67.9757 1842.29 58 1821.5 58V66ZM1786.87 78.3004C1796.09 70.6555 1808.2 66 1821.5 66V58C1806.32 58 1792.41 63.321 1781.76 72.1398L1786.87 78.3004ZM1768.75 78.1205C1773.86 78.4465 1778.95 78.8092 1784 79.2077L1784.63 71.2325C1779.54 70.8308 1774.41 70.4653 1769.25 70.1367L1768.75 78.1205ZM1734.5 67C1746.63 67 1757.77 70.8742 1766.64 77.3576L1771.36 70.8996C1761.14 63.4278 1748.35 59 1734.5 59V67ZM1705.26 75.3803C1713.61 70.0947 1723.66 67 1734.5 67V59C1722.12 59 1710.59 62.5364 1700.98 68.6222L1705.26 75.3803ZM1701.5 76C1702.04 76 1702.58 76.0004 1703.12 76.0012L1703.13 68.0012C1702.59 68.0004 1702.04 68 1701.5 68V76ZM1559.34 85.7684C1603.74 79.4463 1651.6 76 1701.5 76V68C1651.24 68 1603 71.471 1558.21 77.8483L1559.34 85.7684ZM1526.5 74C1537.73 74 1548.06 78.0592 1556.21 84.8764L1561.34 78.7402C1551.83 70.7836 1539.71 66 1526.5 66V74ZM1497.46 84.3273C1505.5 77.8422 1515.57 74 1526.5 74V66C1513.65 66 1501.83 70.5272 1492.44 78.0998L1497.46 84.3273ZM1406.5 76C1437.2 76 1466.67 79.2141 1494.11 85.1239L1495.79 77.3033C1467.79 71.2718 1437.75 68 1406.5 68V76ZM1372.86 77.3024C1383.88 76.4429 1395.1 76 1406.5 76V68C1394.9 68 1383.46 68.451 1372.24 69.3267L1372.86 77.3024ZM1330.5 65C1345.58 65 1359.4 69.374 1370.33 76.6454L1374.76 69.9837C1362.48 61.8197 1347.12 57 1330.5 57V65ZM1300.24 71.3638C1309.25 67.3092 1319.54 65 1330.5 65V57C1318.42 57 1307.01 59.546 1296.96 64.0689L1300.24 71.3638ZM1261.12 57.0774C1273.75 61.3114 1285.71 66.0852 1296.9 71.3376L1300.3 64.0951C1288.81 58.7044 1276.56 53.818 1263.66 49.4924L1261.12 57.0774ZM1216.5 35C1234.15 35 1249.71 43.2033 1259.21 55.7051L1265.58 50.8647C1254.56 36.3733 1236.65 27 1216.5 27V35ZM1193.32 40.073C1200.3 36.8283 1208.17 35 1216.5 35V27C1206.99 27 1197.97 29.0883 1189.95 32.8184L1193.32 40.073ZM1151.76 36.1305C1165.17 37.0352 1178.29 38.4717 1191.04 40.4007L1192.23 32.4908C1179.26 30.5283 1165.93 29.068 1152.3 28.1487L1151.76 36.1305ZM1110.5 26C1125.27 26 1138.92 29.5885 1150.13 35.6572L1153.93 28.622C1141.51 21.8973 1126.55 18 1110.5 18V26ZM1068.35 37.0889C1080.01 30.1583 1094.6 26 1110.5 26V18C1093.22 18 1077.21 22.5144 1064.26 30.2129L1068.35 37.0889ZM1060.49 38.3175C1062.56 38.0754 1064.64 37.8459 1066.72 37.6295L1065.89 29.6723C1063.78 29.8924 1061.67 30.1256 1059.56 30.3719L1060.49 38.3175ZM1036.5 31C1044.23 31 1051.5 33.4058 1057.79 37.6581L1062.27 31.0313C1054.75 25.9479 1045.94 23 1036.5 23V31ZM1005.01 47.2712C1012.88 37.1706 1024.14 31 1036.5 31V23C1021.34 23 1007.86 30.5892 998.7 42.3561L1005.01 47.2712ZM968.5 43C980.048 43 990.911 45.0165 1000.46 48.5635L1003.25 41.0639C992.779 37.1762 980.97 35 968.5 35V43ZM911.232 64.5201C923.654 51.6757 944.526 43 968.5 43V35C942.748 35 919.661 44.2961 905.481 58.9586L911.232 64.5201ZM875.593 55.3329C886.533 58.5493 897.019 61.9454 907.014 65.5072L909.699 57.9715C899.554 54.3557 888.924 50.9135 877.849 47.6576L875.593 55.3329ZM823.5 20C846.425 20 865.778 33.8269 872.978 52.9074L880.463 50.0831C872.049 27.7842 849.641 12 823.5 12V20ZM787.387 33.5734C796.781 25.1755 809.481 20 823.5 20V12C807.491 12 792.898 17.9154 782.055 27.6092L787.387 33.5734ZM763.349 31.2408C770.343 32.2784 777.245 33.377 784.05 34.5346L785.392 26.648C778.53 25.4807 771.572 24.3732 764.523 23.3274L763.349 31.2408ZM720.5 12C736.805 12 751.324 19.0004 760.933 29.9258L766.94 24.6424C755.821 12.0002 739.118 4 720.5 4V12ZM693.9 18.8153C701.69 14.4894 710.776 12 720.5 12V4C709.4 4 698.979 6.84418 690.016 11.8214L693.9 18.8153ZM673.5 14C679.359 14 684.915 15.6864 689.865 18.7268L694.052 11.91C687.931 8.15052 680.938 6 673.5 6V14ZM658.242 18.0754C662.906 15.4477 668.071 14 673.5 14V6C666.613 6 660.103 7.8442 654.315 11.1056L658.242 18.0754ZM617.5 4C631.519 4 644.219 9.17518 653.613 17.5727L658.944 11.6083C648.101 1.91507 633.509 -4 617.5 -4V4Z" fill="black" mask="url(#path-1-inside-1_4005_2142)"/>
</g>
<defs>
<clipPath id="clip0_4005_2142">
<rect width="2232" height="101" fill="white" transform="translate(-107)"/>
</clipPath>
</defs>
</svg>
