<svg width="75" height="70" viewBox="0 0 75 70" fill="none" xmlns="http://www.w3.org/2000/svg">
<rect x="1.5" y="1.5" width="67" height="67" rx="23.5" fill="#C9DFEB"/>
<rect x="1.5" y="1.5" width="67" height="67" rx="23.5" stroke="#6CB2D9" stroke-width="3"/>
<path d="M33.2107 33.4671C33.6878 32.8443 34.5531 31.1136 34.1972 29.1737C34.0382 28.3068 33.4459 27.1155 32.5326 26.0285C32.2691 25.7149 31.979 25.4101 31.6648 25.1242C30.0212 23.6285 27.72 22.6518 25.1463 23.6671C20.375 25.5493 19.8995 29.7744 20.8994 32.1168C21.8992 34.4592 26.8398 39.6955 33.2107 33.4671Z" fill="white"/>
<path d="M36.7691 29.7827C38.0046 29.8294 40.1704 30.4526 42.5657 32.7199C43.1946 32.3877 44.335 32.0778 45.5495 32.3545C45.6704 32.2287 46.0482 31.7683 46.5924 30.9331C47.2726 29.8892 47.7415 26.3933 44.811 24.6752C44.4939 24.4892 44.181 24.3325 43.8729 24.203C41.3345 23.1362 39.1176 23.9175 37.4395 25.411C35.9341 26.7509 36.3653 28.8838 36.7691 29.7827Z" fill="white"/>
<path d="M33.825 24.4256C34.9151 23.3714 36.2628 22.5927 37.4684 22.2028C38.5867 21.8641 39.5549 21.8009 40.3785 21.9095C40.1054 21.2649 39.3203 19.6264 38.3645 18.2295C37.1698 16.4832 35.1697 15.0944 33.2606 18.1836C31.7333 20.655 33.0005 23.3747 33.825 24.4256Z" fill="#847766"/>
<path d="M9.34032 32.3434C11.0436 34.3731 14.9057 34.2183 16.6238 33.8872C16.5996 33.6672 16.5849 33.4461 16.5786 33.2232C14.8137 33.0347 11.034 32.2148 10.0349 30.4441C8.78599 28.2307 9.48983 24.5618 11.8451 23.7517C14.2004 22.9416 15.7876 24.8517 16.4197 25.9075C16.9254 26.7521 17.3019 27.4317 17.4269 27.6659C17.5235 27.2937 17.6499 26.9293 17.8044 26.5745C17.7274 26.2924 17.1956 25.2494 15.6845 23.3341C13.7955 20.9399 9.71458 22.2596 8.49205 25.2237C7.26952 28.1879 7.21122 29.8062 9.34032 32.3434Z" fill="#847766"/>
<path d="M16.5786 33.2232C16.5355 31.6917 16.8917 30.0739 17.3211 28.1235C17.3353 28.0589 17.3496 27.994 17.3639 27.9286C17.3833 27.8406 17.4043 27.7531 17.4269 27.6659C17.3019 27.4317 16.9254 26.7521 16.4197 25.9075C15.7876 24.8517 14.2004 22.9416 11.8451 23.7517C9.48983 24.5618 8.78599 28.2307 10.0349 30.4441C11.034 32.2148 14.8137 33.0347 16.5786 33.2232Z" fill="#DBC5AE"/>
<path d="M61.5163 36.9154C59.6913 34.8689 56.7897 35.9882 55.5671 36.8036C55.099 36.955 54.2271 37.5762 54.484 38.8502C54.8051 40.4428 57.1705 41.762 59.1721 41.357C59.4193 41.307 59.6759 41.2407 59.9317 41.1579C61.747 40.5705 63.5159 39.1577 61.5163 36.9154Z" fill="#433C32"/>
<path d="M55.2422 43.7427C54.4171 43.8402 52.8829 43.9244 51.3329 43.794C51.1131 44.2332 50.7319 44.8553 50.2282 45.4739C50.9134 45.8943 52.7805 46.6519 54.7669 46.3198C55.0625 45.8849 55.5714 44.7607 55.2422 43.7427Z" fill="#DBC5AE"/>
<path d="M48.589 43.2527C48.7129 43.7478 48.1867 44.616 47.8951 45.0038L47.0546 47.6505C48.3172 47.4326 49.4274 46.4576 50.2282 45.4739C50.7319 44.8553 51.1131 44.2332 51.3329 43.794C50.3687 43.7128 49.3984 43.5485 48.589 43.2527Z" fill="white"/>
<path d="M58.3445 44.1935C57.0829 44.3688 55.7506 43.966 55.2422 43.7427C55.5714 44.7607 55.0625 45.8849 54.7669 46.3198L53.3045 48.3921C54.1652 48.3561 56.3783 47.466 58.3445 44.1935Z" fill="white"/>
<path fill-rule="evenodd" clip-rule="evenodd" d="M33.2107 33.4671C33.6878 32.8443 34.5531 31.1136 34.1972 29.1737C34.0382 28.3068 33.4459 27.1155 32.5326 26.0285C32.8846 25.4441 33.328 24.9062 33.825 24.4256C34.9151 23.3714 36.2628 22.5927 37.4684 22.2028C38.5867 21.8641 39.5549 21.8009 40.3785 21.9095C42.3378 22.1677 43.4784 23.3979 43.8729 24.203C41.3345 23.1362 39.1176 23.9175 37.4395 25.411C35.9341 26.7509 36.3653 28.8838 36.7691 29.7827C38.0046 29.8294 40.1704 30.4526 42.5657 32.7199C43.1946 32.3877 44.335 32.0778 45.5495 32.3545C46.4669 32.5636 47.4266 33.1074 48.2399 34.2293C49.9004 33.9185 53.6905 33.9983 55.5671 36.8036C55.099 36.955 54.2271 37.5762 54.484 38.8502C54.8051 40.4428 57.1705 41.762 59.1721 41.357C59.4193 41.307 59.6759 41.2407 59.9317 41.1579C59.9283 42.0967 59.6061 44.0182 58.3445 44.1935C57.0829 44.3688 55.7506 43.966 55.2422 43.7427C54.4171 43.8402 52.8829 43.9244 51.3329 43.794C50.3687 43.7128 49.3984 43.5485 48.589 43.2527C48.5833 43.2299 48.5762 43.2079 48.5677 43.1868C47.7221 42.6202 45.79 41.3418 44.8269 40.7614C43.6229 40.036 40.5116 38.958 36.9923 39.4659C36.2195 39.5775 35.4767 39.7237 34.736 39.8696C32.1034 40.3879 29.4979 40.901 25.6719 39.8309C21.7499 38.7339 19.9287 40.0563 19.5083 40.8547C19.5344 41.7348 19.9925 43.8294 21.6161 45.1664C23.2397 46.5035 26.0077 44.5222 27.1888 43.3644C28.9083 43.7755 30.5712 44.1074 32.1607 44.3727C31.8731 45.4245 31.3117 47.9306 31.3668 49.5396C31.4356 51.551 15.9985 50.535 15.2749 48.2971L14.263 45.1681C12.8937 40.454 15.3874 36.355 16.8055 34.8947C16.7202 34.5596 16.6609 34.2246 16.6238 33.8872C16.5996 33.6672 16.5849 33.4461 16.5786 33.2232C16.5355 31.6917 16.8917 30.0739 17.3211 28.1235C17.3353 28.0589 17.3496 27.994 17.3639 27.9286C17.3833 27.8406 17.4043 27.7531 17.4269 27.6659C17.5235 27.2937 17.6499 26.9293 17.8044 26.5745C18.7511 24.4009 20.7549 22.591 23.4586 21.5956C26.707 20.3998 29.5408 21.519 30.755 22.7258C31.7264 23.6913 31.7663 24.727 31.6648 25.1242C30.0212 23.6285 27.72 22.6518 25.1463 23.6671C20.375 25.5493 19.8995 29.7744 20.8994 32.1168C21.8992 34.4592 26.8398 39.6955 33.2107 33.4671Z" fill="#847766"/>
<path d="M48.5677 43.1868C47.7221 42.6202 45.79 41.3418 44.8269 40.7614C43.6229 40.036 40.5116 38.958 36.9923 39.4659C36.2195 39.5775 35.4767 39.7237 34.736 39.8696C32.1034 40.3879 29.4979 40.901 25.6719 39.8309C21.7499 38.7339 19.9287 40.0563 19.5083 40.8547C19.5344 41.7348 19.9925 43.8294 21.6161 45.1664C23.2397 46.5035 26.0077 44.5222 27.1888 43.3644C28.9083 43.7755 30.5712 44.1074 32.1607 44.3727C39.5739 45.6099 45.3887 45.3966 47.8951 45.0038C48.1867 44.616 48.7129 43.7478 48.589 43.2527C48.5833 43.2299 48.5762 43.2079 48.5677 43.1868Z" fill="#DBC5AE"/>
<path d="M47.8951 45.0037C48.1867 44.616 48.7129 43.7478 48.589 43.2527M47.8951 45.0037L47.0546 47.6505C48.3172 47.4326 49.4274 46.4576 50.2282 45.4739M47.8951 45.0037C45.3887 45.3966 39.5739 45.6098 32.1607 44.3727M22.7924 42.1676C26.0926 43.1775 29.2498 43.8869 32.1607 44.3727M19.5083 40.8547C19.9287 40.0563 21.7499 38.7339 25.6719 39.8309C30.5744 41.2021 33.473 39.9739 36.9923 39.4659C40.5116 38.958 43.6229 40.036 44.8269 40.7614C45.79 41.3418 47.7221 42.6202 48.5677 43.1868C48.5762 43.2079 48.5833 43.2299 48.589 43.2527M22.5143 37.4107C24.0306 38.0028 27.7394 38.9102 30.4445 37.8028C33.8258 36.4186 33.666 34.7254 33.2107 33.4671M33.2107 33.4671C33.6878 32.8443 34.5531 31.1136 34.1972 29.1737C34.0382 28.3068 33.4459 27.1155 32.5326 26.0285M33.2107 33.4671C26.8398 39.6955 21.8992 34.4592 20.8994 32.1168C19.8995 29.7744 20.375 25.5493 25.1463 23.6671C27.72 22.6518 30.0212 23.6285 31.6648 25.1242M36.0581 29.8321C36.2369 29.7928 36.477 29.7717 36.7691 29.7827M48.2399 34.2293C47.962 34.3192 47.3447 34.5188 47.099 34.5982C46.8533 34.6777 47.7572 34.3854 48.2399 34.2293ZM48.2399 34.2293C49.9004 33.9185 53.6905 33.9983 55.5671 36.8036M48.2399 34.2293C47.4266 33.1074 46.4669 32.5636 45.5495 32.3545M55.5671 36.8036C56.7897 35.9882 59.6913 34.8689 61.5163 36.9154C63.5159 39.1577 61.747 40.5705 59.9317 41.1579M55.5671 36.8036C55.099 36.955 54.2271 37.5762 54.484 38.8502C54.8051 40.4428 57.1705 41.762 59.1721 41.357C59.4193 41.307 59.6759 41.2407 59.9317 41.1579M59.9317 41.1579C59.9283 42.0967 59.6061 44.0182 58.3445 44.1935M58.3445 44.1935C57.0829 44.3688 55.7506 43.966 55.2422 43.7427M58.3445 44.1935C56.3783 47.466 54.1652 48.3561 53.3045 48.3921L54.7669 46.3198M55.2422 43.7427C54.4171 43.8402 52.8829 43.9244 51.3329 43.794M55.2422 43.7427C55.5714 44.7607 55.0625 45.8849 54.7669 46.3198M48.589 43.2527C49.3984 43.5485 50.3687 43.7128 51.3329 43.794M51.3329 43.794C51.1131 44.2332 50.7319 44.8553 50.2282 45.4739M50.2282 45.4739C50.9134 45.8943 52.7805 46.6519 54.7669 46.3198M36.7691 29.7827C38.0046 29.8294 40.1704 30.4526 42.5657 32.7199C43.1946 32.3877 44.335 32.0778 45.5495 32.3545M36.7691 29.7827C36.3653 28.8838 35.9341 26.7509 37.4395 25.411C39.1176 23.9175 41.3345 23.1362 43.8729 24.203M45.5495 32.3545C45.6704 32.2287 46.0482 31.7683 46.5924 30.9331C47.2726 29.8892 47.7415 26.3933 44.811 24.6752C44.4939 24.4892 44.181 24.3325 43.8729 24.203M43.8729 24.203C43.4784 23.3979 42.3378 22.1677 40.3785 21.9095M32.5326 26.0285C32.8846 25.4441 33.328 24.9062 33.825 24.4256M32.5326 26.0285C32.2691 25.7149 31.979 25.4101 31.6648 25.1242M33.825 24.4256C34.9151 23.3714 36.2628 22.5927 37.4684 22.2028C38.5867 21.8641 39.5549 21.8009 40.3785 21.9095M33.825 24.4256C33.0005 23.3747 31.7333 20.655 33.2606 18.1836C35.1697 15.0944 37.1698 16.4832 38.3645 18.2295C39.3203 19.6264 40.1054 21.2649 40.3785 21.9095M31.6648 25.1242C31.7663 24.727 31.7264 23.6913 30.755 22.7258C29.5408 21.519 26.707 20.3998 23.4586 21.5956C20.7549 22.591 18.7511 24.4009 17.8044 26.5745M16.8055 34.8947L17.2172 34.5192M16.8055 34.8947C15.3874 36.355 12.8937 40.454 14.263 45.1681M16.8055 34.8947C16.7202 34.5596 16.6609 34.2246 16.6238 33.8872M14.263 45.1681C14.3591 45.4652 14.6959 46.5069 15.2749 48.2971M14.263 45.1681L15.2749 48.2971M16.6238 33.8872C14.9057 34.2183 11.0436 34.3731 9.34032 32.3434C7.21122 29.8062 7.26952 28.1879 8.49205 25.2237C9.71458 22.2596 13.7955 20.9399 15.6845 23.3341C17.1956 25.2494 17.7274 26.2924 17.8044 26.5745M16.6238 33.8872C16.5996 33.6672 16.5849 33.4461 16.5786 33.2232M17.8044 26.5745C17.6499 26.9293 17.5235 27.2937 17.4269 27.6659M16.5786 33.2232C16.5341 31.641 16.9157 29.9667 17.3639 27.9286C17.3833 27.8406 17.4043 27.7531 17.4269 27.6659M16.5786 33.2232C14.8137 33.0347 11.034 32.2148 10.0349 30.4441C8.78599 28.2307 9.48983 24.5618 11.8451 23.7517C14.2004 22.9416 15.7876 24.8517 16.4197 25.9075C16.9254 26.7521 17.3019 27.4317 17.4269 27.6659M32.1607 44.3727C31.8731 45.4245 31.3117 47.9306 31.3668 49.5396C31.4356 51.551 15.9985 50.535 15.2749 48.2971" stroke="#292929" stroke-linecap="round"/>
<path fill-rule="evenodd" clip-rule="evenodd" d="M27.4392 32.1495C28.8207 31.7028 29.5782 30.2209 29.1315 28.8396C28.6848 27.4582 27.2031 26.7005 25.8216 27.1473C24.44 27.594 23.6825 29.0758 24.1292 30.4572C24.5759 31.8385 26.0577 32.5963 27.4392 32.1495ZM27.4344 29.4368C27.8464 29.3036 28.0723 28.8616 27.9391 28.4497C27.8059 28.0377 27.364 27.8117 26.9519 27.9449C26.5399 28.0782 26.314 28.5201 26.4472 28.9321C26.5804 29.3441 27.0223 29.5701 27.4344 29.4368Z" fill="black"/>
<path fill-rule="evenodd" clip-rule="evenodd" d="M42.6081 30.3462C43.8683 29.9387 44.5595 28.5868 44.152 27.3266C43.7445 26.0664 42.3926 25.3752 41.1324 25.7827C39.8722 26.1902 39.181 27.5422 39.5885 28.8023C39.996 30.0625 41.3479 30.7537 42.6081 30.3462ZM42.6162 27.8232C43.0283 27.69 43.2542 27.248 43.1209 26.8361C42.9877 26.4241 42.5458 26.1981 42.1338 26.3313C41.7217 26.4646 41.4958 26.9065 41.629 27.3185C41.7623 27.7305 42.2041 27.9565 42.6162 27.8232Z" fill="black"/>
</svg>
