<svg width="30" height="36" viewBox="0 0 30 36" fill="none" xmlns="http://www.w3.org/2000/svg">
<path d="M10.175 13.4148C12.3008 12.8412 13.7556 12.5379 15.4051 11.0107C16.8376 9.68442 17.8095 8.43776 18.0204 6.75061C18.2313 5.06346 17.0082 1.81569 17.2612 1.68916C17.5143 1.56262 19.2436 3.5872 19.4545 3.5872C19.6654 3.5872 20.2137 2.11094 20.5933 1.52043C20.897 1.04803 21.4229 3.40442 21.6478 4.64167C22.4773 3.62938 24.2207 1.79882 24.5581 2.57491C24.9799 3.54502 21.1417 8.64865 21.3526 9.5344C21.5635 10.4202 22.2805 11.5168 24.5581 14.1319C26.8358 16.747 29.5352 17.7593 28.3121 23.7486C27.0889 29.738 16.3331 38.6377 7.89732 32.4375C-0.53843 26.2372 0.600397 22.3567 1.90794 19.3621C3.21548 16.3674 7.51771 14.1319 10.175 13.4148Z" fill="#D3AF75" stroke="#292929" stroke-width="1.5" stroke-linecap="round"/>
<path d="M16.224 10.0205C16.224 10.0205 15.7819 9.37119 16.1565 9.19414C15.9045 8.92319 15.5329 8.21473 16.0623 7.54856C16.7241 6.71584 20.4822 6.29668 22.7574 7.71829C23.435 8.24569 23.2458 9.31201 22.774 9.79821C22.85 9.8621 22.924 9.92941 22.9959 10.0003C23.4308 10.6882 22.6852 11.6554 16.224 10.0205Z" fill="#413D34"/>
<path d="M16.1565 9.19414C15.7819 9.37119 16.224 10.0205 16.224 10.0205C22.6852 11.6554 23.4308 10.6882 22.9959 10.0003C22.924 9.92941 22.85 9.8621 22.774 9.79821M16.1565 9.19414C15.9045 8.92319 15.5329 8.21473 16.0623 7.54856C16.7241 6.71584 20.4822 6.29668 22.7574 7.71829C23.435 8.24569 23.2458 9.31201 22.774 9.79821M16.1565 9.19414C16.5188 9.02283 20.5075 7.89223 22.774 9.79821" stroke="#292929" stroke-width="1.5" stroke-linecap="round"/>
<path d="M16.6479 27.9243C14.792 28.7341 12.191 27.3338 11.1225 26.5324C11.1225 24.609 12.0082 24.3408 12.1769 24.2547C12.3457 24.1687 13.4507 25.3851 15.0029 25.3514C16.9431 25.3092 15.6356 23.7064 14.4546 22.8207C13.2736 21.9349 12.3035 21.1757 12.5144 19.2776C12.6831 17.7592 14.3843 17.2952 15.2138 17.2531C15.1463 16.9156 15.5512 15.9877 15.7621 15.5659L17.7445 15.9033L17.618 17.464C18.2929 17.5989 19.1927 18.2513 19.5582 18.5606L18.6725 20.2899C18.7287 20.3181 18.5291 20.2478 17.2806 19.7416C15.72 19.1089 14.4124 20.1212 15.8465 21.1757C17.2806 22.2302 18.3772 23.1159 18.5459 24.0017C18.7146 24.8874 18.9677 26.912 16.6479 27.9243Z" fill="#347920" stroke="#292929" stroke-width="1.5" stroke-linecap="round"/>
</svg>
