<svg width="543" height="252" viewBox="0 0 543 252" fill="none" xmlns="http://www.w3.org/2000/svg">
<path fill-rule="evenodd" clip-rule="evenodd" d="M212.886 222.388C220.357 221.673 239.076 223.628 246.128 230.492C252.255 227.632 276.75 223.628 325.706 230.492C328.415 229.463 332.131 228.332 336.534 227.36C347.631 224.909 363.094 223.461 377.834 227.154L387.656 230.492C384.458 229.085 381.165 227.988 377.834 227.154C379.139 226.997 380.677 226.834 382.367 226.683C388.126 226.169 395.653 225.788 401.758 226.203C405.616 226.465 408.906 227.045 410.824 228.109C413.83 225.682 420.362 221.884 429.963 218.637C438.591 215.72 449.698 213.247 462.953 212.616C464.715 201.492 474.083 175.527 497.453 160.654C497.506 156.978 499.495 150.744 505.764 146.087L498.964 109.884C497.237 108.067 495.148 105.763 492.92 103.163C484.434 93.2539 473.941 79.037 473.781 71.0317L463.456 61.9742C461.975 62.5377 460.104 63.1163 457.916 63.6384C446.84 66.2818 427.649 67.4761 409.817 57.9221C409.292 58.0381 408.703 58.1518 408.054 58.2592C404.608 58.8297 399.494 59.2207 393.7 58.8078C387.129 58.3397 379.683 56.8382 372.798 53.3933C366.625 55.1357 355.319 56.3955 345.096 52.9257C343.288 52.3119 341.514 51.5502 339.808 50.6171C336.206 48.6465 332.908 45.9115 330.239 42.1905C329.09 40.5894 328.08 39.0833 327.193 37.6618C324.862 36.6185 321.06 35.4496 316.388 34.8361C308.964 33.8611 299.344 34.289 289.946 38.8536C288.658 38.2613 286.553 37.5194 284.154 37.0658C283.421 36.9272 282.66 36.8156 281.887 36.7433C279.42 36.5126 260.407 33.8577 258.168 34.8361C259.259 39.4443 246.289 33.6107 237.314 35.2363C231.709 36.2514 226.956 38.7768 223.384 39.4116C216.92 40.5604 213.474 50.8339 206.087 51.0263C191.467 51.407 176.511 49.1857 167.041 41.4755C163.232 42.9186 155.474 43.843 148.694 39.3303C145.662 43.9388 135.142 50.1675 115.68 43.0661L112.462 41.8026C110.745 41.0814 108.964 40.2602 107.118 39.3303C106.887 39.362 106.639 39.3894 106.374 39.4116L80.6757 29.3193C90.246 38.3776 101.332 39.8338 106.374 39.4116L112.462 41.8026C113.561 42.2639 114.633 42.6843 115.68 43.0661C115.512 45.3168 111.046 49.7226 94.5263 49.3413C91.8429 51.5989 85.8942 54.8923 77.5161 56.492C78.4014 65.1522 75.5384 85.8576 57.0038 99.3963C58.5987 105.911 58.011 122.851 42.9013 138.487C51.1649 143.459 66.5561 156.167 75.8909 173.942C78.7883 179.459 81.1024 185.465 82.4385 191.879C85.4605 193.229 91.6555 196.646 92.2598 199.506C97.6705 198.253 106.462 197.8 116.184 200.143C128.03 202.998 141.26 210.004 151.44 224.772C152.909 224.051 154.878 223.27 157.232 222.563C166.04 219.915 180.234 218.301 193.747 224.772C197.273 224.295 206.036 223.151 212.886 222.388Z" fill="#EEF8FD"/>
<path d="M204.324 174.717C194.452 197.027 205.919 215.794 212.886 222.388C206.036 223.151 197.273 224.295 193.747 224.772C180.234 218.301 166.04 219.915 157.232 222.563C154.878 223.27 152.909 224.051 151.44 224.772C141.26 210.004 128.03 202.998 116.184 200.143C106.462 197.8 97.6705 198.253 92.2598 199.506C91.6555 196.646 85.4605 193.229 82.4385 191.879C81.1024 185.465 78.7883 179.459 75.8909 173.942C66.5561 156.167 51.1649 143.459 42.9013 138.487C58.011 122.851 58.5987 105.911 57.0038 99.3963C75.5384 85.8576 78.4014 65.1522 77.5161 56.492C85.8942 54.8923 91.8429 51.5989 94.5263 49.3413C111.046 49.7226 115.512 45.3168 115.68 43.0661C135.142 50.1675 145.662 43.9388 148.694 39.3303C155.474 43.843 163.232 42.9186 167.041 41.4755C176.511 49.1857 191.467 51.407 206.087 51.0263C213.474 50.8339 216.92 40.5604 223.384 39.4116C226.956 38.7768 231.709 36.2514 237.314 35.2363C246.289 33.6107 259.259 39.4443 258.168 34.8361C260.407 33.8577 279.42 36.5126 281.887 36.7433C282.66 36.8156 283.421 36.9272 284.154 37.0658C286.553 37.5194 288.658 38.2613 289.946 38.8536C299.344 34.289 308.964 33.8611 316.388 34.8361C321.06 35.4496 324.862 36.6185 327.193 37.6618C328.08 39.0833 329.09 40.5894 330.239 42.1905C332.908 45.9115 336.206 48.6465 339.808 50.6171C341.514 51.5502 343.288 52.3119 345.096 52.9257C355.319 56.3955 366.625 55.1357 372.798 53.3933C379.683 56.8382 387.129 58.3397 393.7 58.8078C399.494 59.2207 404.608 58.8297 408.054 58.2592C408.703 58.1518 409.292 58.0381 409.817 57.9221C427.649 67.4761 446.84 66.2818 457.916 63.6384C460.104 63.1163 461.975 62.5377 463.456 61.9742L473.781 71.0317C473.941 79.037 484.434 93.2539 492.92 103.163C495.148 105.763 497.237 108.067 498.964 109.884L505.764 146.087C499.495 150.744 497.506 156.978 497.453 160.654C474.083 175.527 464.715 201.492 462.953 212.616C449.698 213.247 438.591 215.72 429.963 218.637C420.362 221.884 413.83 225.682 410.824 228.109C408.906 227.045 405.616 226.465 401.758 226.203C395.653 225.788 388.126 226.169 382.367 226.683L375.064 217.383L395.714 214.046C394.908 211.186 382.619 207.292 376.575 205.703L392.44 197.122C380.151 189.495 356.429 195.374 346.104 199.268C346.219 198.522 346.319 197.551 346.379 196.407C346.622 191.703 346.161 184.089 343.082 177.339C341.338 173.517 338.892 169.125 335.695 164.706C330.119 156.998 322.259 149.207 311.855 144.207C299.885 138.456 292.09 134.488 276.851 134.821C271.249 134.944 264.642 135.647 256.453 137.057C249.013 138.337 242.835 139.574 237.565 141.12C225.201 144.746 217.841 150.066 210.942 161.607C208.738 165.293 206.582 169.614 204.324 174.717Z" fill="#344B56"/>
<path fill-rule="evenodd" clip-rule="evenodd" d="M212.886 222.388C205.919 215.794 194.452 197.027 204.324 174.717C206.582 169.614 208.738 165.293 210.942 161.607C217.841 150.066 225.201 144.746 237.565 141.12C242.835 139.574 249.013 138.337 256.453 137.057C264.642 135.647 271.249 134.944 276.851 134.821C292.09 134.488 299.885 138.456 311.855 144.207C322.259 149.207 330.119 156.998 335.695 164.706C338.892 169.125 341.338 173.517 343.082 177.339C346.161 184.089 346.622 191.703 346.379 196.407C346.319 197.551 346.219 198.522 346.104 199.268C341.571 202.185 333.311 211.887 336.534 227.36C332.131 228.332 328.415 229.463 325.706 230.492C276.75 223.628 252.255 227.632 246.128 230.492C239.076 223.628 220.357 221.673 212.886 222.388ZM260.275 187.484L277.955 193.486C271.606 207.572 273.87 210.062 275.843 209.517C284.001 206.263 289.885 202.597 294.067 198.955C297.406 196.046 299.66 193.152 301.117 190.494L280.403 184.143C281.405 175.584 279.919 166.262 275.843 166.613C272.832 166.872 268.185 172.199 264.246 179.191C262.785 181.784 261.422 184.606 260.275 187.484Z" fill="#EEBF79"/>
<path d="M275.843 166.613C279.919 166.262 281.405 175.584 280.403 184.143L264.246 179.191C268.185 172.199 272.832 166.872 275.843 166.613Z" fill="#EEBF79"/>
<path d="M377.834 227.154C363.094 223.461 347.631 224.909 336.534 227.36C333.311 211.887 341.571 202.185 346.104 199.268C356.429 195.374 380.151 189.495 392.44 197.122L376.575 205.703C382.619 207.292 394.908 211.186 395.714 214.046L375.064 217.383L382.367 226.683C380.677 226.834 379.139 226.997 377.834 227.154Z" fill="#EEBF79"/>
<path d="M301.117 190.494C299.66 193.152 297.406 196.046 294.067 198.955L277.955 193.486C278.087 193.193 278.222 192.896 278.362 192.594C279.361 190.199 280.042 187.22 280.403 184.143L301.117 190.494Z" fill="#EEBF79"/>
<path d="M275.843 209.517C273.87 210.062 271.606 207.572 277.955 193.486L294.067 198.955C289.885 202.597 284.001 206.263 275.843 209.517Z" fill="#EEBF79"/>
<path d="M277.955 193.486L260.275 187.484C261.422 184.606 262.785 181.784 264.246 179.191L280.403 184.143C280.042 187.22 279.361 190.199 278.362 192.594C278.222 192.896 278.087 193.193 277.955 193.486Z" fill="#EEBF79"/>
<path d="M346.104 199.268C341.571 202.185 333.311 211.887 336.534 227.36M346.104 199.268C356.429 195.374 380.151 189.495 392.44 197.122L376.575 205.703C382.619 207.292 394.908 211.185 395.714 214.046L375.064 217.383L382.367 226.683M346.104 199.268C346.219 198.522 346.319 197.551 346.379 196.407M212.886 222.388C205.919 215.794 194.452 197.027 204.324 174.717C206.582 169.614 208.738 165.293 210.942 161.607M212.886 222.388C220.357 221.673 239.076 223.628 246.128 230.492M212.886 222.388C206.036 223.151 197.273 224.295 193.747 224.772C180.234 218.301 166.04 219.915 157.232 222.563M246.128 230.492L236.306 233.114M246.128 230.492C252.255 227.632 276.75 223.628 325.706 230.492C328.415 229.463 332.131 228.332 336.534 227.36M377.834 227.154C381.165 227.988 384.458 229.085 387.656 230.492L377.834 227.154ZM377.834 227.154C363.094 223.461 347.631 224.909 336.534 227.36M377.834 227.154C379.139 226.997 380.677 226.834 382.367 226.683M462.953 212.616C464.715 201.492 474.083 175.527 497.453 160.654C497.506 156.978 499.495 150.744 505.764 146.087M462.953 212.616C463.708 212.616 492.417 202.605 506.267 204.035M462.953 212.616C469.752 216.588 484.509 226.25 489.143 233.114M462.953 212.616C449.698 213.247 438.591 215.72 429.963 218.637M521.377 140.394C514.44 141.232 509.387 143.396 505.764 146.087M505.764 146.087L498.964 109.884C497.237 108.067 495.148 105.763 492.92 103.163M473.781 71.0317L463.456 61.9742M473.781 71.0317L492.92 78.1825C496.782 76.4345 505.109 71.1271 507.526 63.881C510.548 54.8235 508.786 61.4974 515.585 31.4645M473.781 71.0317C473.941 79.037 484.434 93.2539 492.92 103.163M463.456 61.9742C466.646 57.9221 473.177 47.5297 473.781 38.3768C474.386 29.2239 472.354 19.9439 471.263 16.448M463.456 61.9742C461.975 62.5377 460.104 63.1163 457.916 63.6384M372.798 53.3933C366.625 55.1357 355.319 56.3955 345.096 52.9257M372.798 53.3933L385.641 46.2426C387.656 41.7138 391.232 31.5122 389.418 26.9357M372.798 53.3933C379.683 56.8382 387.129 58.3397 393.7 58.8078M322.684 7.15213C322.684 16.5515 317.389 21.9416 327.193 37.6618M327.193 37.6618C328.08 39.0833 329.09 40.5894 330.239 42.1905C332.908 45.9115 336.206 48.6465 339.808 50.6171M327.193 37.6618C324.862 36.6185 321.06 35.4496 316.388 34.8361M258.168 34.8361C258.503 32.9292 262.661 30.9401 259.639 26.9357C261.99 20.659 263.568 6.81843 251.077 1.66992M258.168 34.8361C259.259 39.4443 246.289 33.6107 237.313 35.2363C231.709 36.2514 226.956 38.7768 223.384 39.4116M258.168 34.8361C260.407 33.8577 279.42 36.5126 281.887 36.7433M157.735 25.7439C159.043 32.5492 162.376 37.6781 167.041 41.4755M167.041 41.4755C163.232 42.9186 155.474 43.843 148.694 39.3303M167.041 41.4755C176.511 49.1857 191.467 51.407 206.087 51.0263M142.626 33.133C144.438 35.8689 146.516 37.8803 148.694 39.3303M148.694 39.3303C145.662 43.9388 135.142 50.1675 115.68 43.0661M115.68 43.0661C115.512 45.3168 111.046 49.7226 94.5263 49.3412C91.8429 51.5989 85.8942 54.8923 77.5161 56.492M115.68 43.0661L112.462 41.8026M115.68 43.0661C114.633 42.6843 113.561 42.2639 112.462 41.8026M57.0038 56.492C64.8129 57.8924 71.7415 57.5945 77.5161 56.492M77.5161 56.492C78.4014 65.1522 75.5384 85.8576 57.0038 99.3963M57.0038 99.3963C55.4088 93.7551 48.7438 79.7556 34.8428 68.8865M57.0038 99.3963C58.5987 105.911 58.011 122.851 42.9013 138.487M42.9013 138.487C40.2151 137.295 32.8282 135.15 24.7696 136.103M42.9013 138.487C51.165 143.459 66.5561 156.167 75.8909 173.942M82.4386 191.879C85.4605 193.229 91.6554 196.646 92.2598 199.506C97.6705 198.253 106.462 197.8 116.184 200.143M82.4386 191.879C79.0808 191.561 71.9624 191.116 70.3507 191.879C66.1536 188.939 54.7876 183.727 42.9013 186.396C41.1385 183.139 34.0873 176.528 19.9848 176.147M82.4386 191.879C81.1024 185.465 78.7883 179.459 75.8909 173.942M151.44 224.772L145.9 226.44M151.44 224.772C152.909 224.051 154.878 223.27 157.232 222.563M151.44 224.772C141.26 210.004 128.03 202.998 116.184 200.143M382.367 226.683C388.126 226.169 395.653 225.788 401.758 226.203M346.379 196.407C346.622 191.703 346.161 184.089 343.082 177.339C341.338 173.517 338.892 169.125 335.695 164.706M346.379 196.407C340.831 197.372 329.735 202.108 329.735 213.331M314.877 214.522C314.373 215.476 310.344 220.958 303.293 219.528M258.719 219.766C255.865 219.687 249.703 218.765 247.89 215.714M243.106 223.103C241.427 222.07 237.716 219.528 236.306 217.621M225.729 217.621C223.883 216.668 219.937 213.712 218.93 209.517M212.886 208.087C211.879 206.18 209.814 201.413 209.612 197.599M211.123 186.158C210.368 184.887 209.008 181.582 209.612 178.531M248.646 183.536L260.275 187.484M308.329 203.796L294.067 198.955M311.855 193.785L301.117 190.494M249.653 174.717L264.246 179.191M303.293 180.914C303.694 183.097 303.289 186.534 301.117 190.494M257.208 198.314C257.722 194.85 258.825 191.123 260.275 187.484M345.096 52.9257C346.44 47.5199 349.176 35.3259 349.378 29.796M345.096 52.9257C343.288 52.3119 341.514 51.5502 339.808 50.6171M368.013 26.9357C368.013 27.6508 367.761 39.3303 366.502 43.144M408.054 58.2592C408.703 58.1518 409.292 58.0381 409.817 57.9221C427.649 67.4761 446.84 66.2818 457.916 63.6384M408.054 58.2592C412.167 53.8564 419.638 39.9023 416.616 19.3083M408.054 58.2592C404.608 58.8297 399.494 59.2207 393.7 58.8078M492.92 103.163C499.888 102.113 516.139 95.8372 525.406 79.1359M500.223 188.78C497.537 188.939 491.56 189.638 489.143 191.163M502.238 182.583C507.275 180.596 521.78 177.101 539.509 179.007M512.311 231.446C520.118 233.909 536.89 240.074 541.523 245.032M448.598 250.753C444.233 247.018 434.395 239.121 429.963 237.405M140.611 235.021C137.505 236.61 130.387 241.266 126.76 247.177M113.414 227.632L109.636 233.353M68.8397 221.196C64.6426 218.416 54.1832 215.81 45.9232 227.632M36.3539 211.185C33.3319 209.835 25.5755 208.325 18.7257 213.092M13.1854 167.566H0.0902466M33.08 127.522C32.4924 126.092 31.1157 123.041 30.3098 122.279M40.6347 50.533C37.277 48.1495 29.0003 42.8579 22.755 40.7604M28.2951 56.492C26.4483 55.0618 22.4023 52.1062 20.9921 51.7248M457.916 63.6384C465.387 78.7358 479.926 114.699 478.314 137.772M480.077 150.881C478.986 156.761 476.551 169.044 475.544 171.142M429.963 218.637C420.362 221.884 413.83 225.682 410.824 228.109C408.906 227.045 405.616 226.465 401.758 226.203M429.963 218.637C434.076 209.003 442.403 185.348 442.806 167.805M401.758 226.203C406.963 213.649 416.969 183.536 415.357 163.514M393.7 58.8078C399.659 74.0058 411.227 107.882 409.817 121.802M339.808 50.6171C342.998 60.3617 349.378 83.188 349.378 96.536M343.082 133.481C342.187 142.062 339.456 160.32 335.695 164.706M335.695 164.706C330.119 156.998 322.259 149.207 311.855 144.207C299.885 138.456 292.09 134.488 276.851 134.821M280.125 109.646C280.376 116.418 280.074 130.936 276.851 134.821M276.851 134.821C271.249 134.944 264.642 135.647 256.453 137.057C249.013 138.337 242.835 139.574 237.565 141.12M237.565 141.12C234.291 132.535 227.643 113.03 227.24 103.687M237.565 141.12C225.201 144.746 217.841 150.066 210.942 161.607M226.233 79.3743C225.394 72.5171 220.564 47.3913 223.384 39.4116M223.384 39.4116C216.92 40.5604 213.474 50.8339 206.087 51.0263M206.087 51.0263C202.393 66.5934 196.215 102.733 201.05 122.755M210.942 161.607C208.988 154.933 205.13 140.68 205.331 137.057M157.232 222.563C152.867 209.633 144.489 181.01 145.9 169.95M142.374 158.747C140.947 135.229 139.956 81.8531 147.41 56.492M99.0591 85.3332C99.3949 90.5771 99.5125 101.589 97.2964 103.687C100.318 111.155 106.161 130.24 105.355 146.829C104.348 167.566 105.355 177.897 116.184 200.143M75.8909 173.942C73.9602 163.554 70.5018 138.677 72.1135 122.279M316.388 34.8361C308.964 33.8611 299.344 34.289 289.946 38.8536C288.658 38.2613 286.553 37.5194 284.154 37.0658M316.388 34.8361C314.122 30.2163 310.092 18.9746 312.107 10.9658M281.887 36.7433C283.314 31.8056 285.312 20.8338 281.887 16.448M281.887 36.7433C282.66 36.8156 283.421 36.9272 284.154 37.0658M284.154 37.0658C284.909 43.859 285.967 59.1139 284.154 65.7879C284.154 67.9331 286.672 81.0428 285.413 82.4729M335.695 104.878C333.121 108.136 324.497 114.889 310.596 115.843M334.52 96.536C329.483 100.588 316.791 108.597 306.315 108.215M263.504 72.9386C258.383 73.1769 246.581 75.2269 240.336 81.5195M256.453 62.6892C252.759 62.8481 243.76 65.2635 237.313 73.6536M112.462 41.8026C110.745 41.0814 108.964 40.2602 107.118 39.3303C106.887 39.362 106.639 39.3894 106.374 39.4116M112.462 41.8026L106.374 39.4116M106.374 39.4116L80.6757 29.3193C90.246 38.3776 101.332 39.8338 106.374 39.4116ZM260.275 187.484L277.955 193.486M260.275 187.484C261.422 184.606 262.785 181.784 264.246 179.191M277.955 193.486C271.606 207.572 273.87 210.062 275.843 209.517C284.001 206.263 289.885 202.597 294.067 198.955M277.955 193.486C278.087 193.193 278.222 192.896 278.362 192.594C279.361 190.199 280.042 187.22 280.403 184.143M277.955 193.486L294.067 198.955M294.067 198.955C297.406 196.046 299.66 193.152 301.117 190.494M301.117 190.494L280.403 184.143M280.403 184.143C281.405 175.584 279.919 166.262 275.843 166.613C272.832 166.872 268.185 172.199 264.246 179.191M280.403 184.143L264.246 179.191" stroke="#365362" stroke-width="2"/>
</svg>
